<svg xmlns="http://www.w3.org/2000/svg" xmlns:xlink="http://www.w3.org/1999/xlink" width="1024" zoomAndPan="magnify" viewBox="0 0 768 767.999994" height="1024" preserveAspectRatio="xMidYMid meet" version="1.0"><defs><clipPath id="5ee3b38dd5"><path d="M 0 153 L 615 153 L 615 768 L 0 768 Z M 0 153 " clip-rule="nonzero"/></clipPath><clipPath id="e484ee6636"><path d="M -189.773438 153.601562 L 614.207031 957.582031 L -189.773438 1761.5625 L -993.753906 957.582031 Z M -189.773438 153.601562 " clip-rule="nonzero"/></clipPath><clipPath id="c8e0eb67be"><path d="M -189.773438 153.601562 L 614.207031 957.582031 L -189.773438 1761.5625 L -993.753906 957.582031 Z M -189.773438 153.601562 " clip-rule="nonzero"/></clipPath><clipPath id="6ba45e0da3"><path d="M 153.601562 153.601562 L 614.101562 153.601562 L 614.101562 614.101562 L 153.601562 614.101562 Z M 153.601562 153.601562 " clip-rule="nonzero"/></clipPath></defs><rect x="-76.8" width="921.6" fill="#ffffff" y="-76.799999" height="921.599993" fill-opacity="1"/><rect x="-76.8" width="921.6" fill="#333333" y="-76.799999" height="921.599993" fill-opacity="1"/><g clip-path="url(#5ee3b38dd5)"><g clip-path="url(#e484ee6636)"><g clip-path="url(#c8e0eb67be)"><path fill="#413f41" d="M -189.773438 153.601562 L 614.28125 957.65625 L -189.773438 1761.710938 L -993.828125 957.65625 Z M -189.773438 153.601562 " fill-opacity="1" fill-rule="nonzero"/></g></g></g><g clip-path="url(#6ba45e0da3)"><path fill="#a6a6a6" d="M 215.960938 550.15625 C 216 535.042969 224.585938 520.269531 238.574219 503.730469 L 157.6875 452.582031 C 152.589844 450.371094 152.699219 447.257812 155.664062 443.582031 L 172.800781 428.957031 C 175.914062 427.046875 179.210938 426.21875 182.773438 427.195312 L 282.597656 444.070312 L 365.773438 353.996094 L 171.601562 222.636719 C 166.6875 219.75 166.273438 216.488281 171.335938 212.699219 L 199.351562 190.347656 L 452.472656 261.484375 L 527.246094 181.535156 C 552.332031 159.824219 576.707031 150.113281 595.417969 154.726562 C 605.730469 157.273438 609.367188 160.351562 612.554688 170.023438 C 618.742188 189 609.144531 214.5 586.457031 240.75 L 506.507812 315.523438 L 577.644531 568.644531 L 555.292969 596.65625 C 551.507812 601.679688 548.246094 601.269531 545.355469 596.394531 L 413.957031 402.257812 L 323.886719 485.394531 L 340.761719 585.21875 C 341.734375 588.742188 340.949219 592.042969 338.996094 595.191406 L 324.371094 612.332031 C 320.734375 615.292969 317.585938 615.40625 315.371094 610.304688 L 264.222656 529.417969 C 247.613281 543.445312 232.835938 552.03125 217.648438 552.03125 C 216.261719 551.992188 215.960938 551.507812 215.960938 550.15625 Z M 215.960938 550.15625 " fill-opacity="1" fill-rule="evenodd"/></g></svg>